<?xml version="1.0" encoding="utf-8"?>
<!-- Generator: Adobe Illustrator 28.0.0, SVG Export Plug-In . SVG Version: 6.00 Build 0)  -->
<svg version="1.1" id="Capa_1" xmlns="http://www.w3.org/2000/svg" xmlns:xlink="http://www.w3.org/1999/xlink" x="0px" y="0px"
	 viewBox="0 0 1099 237" style="enable-background:new 0 0 1099 237;" xml:space="preserve">
<style type="text/css">
	.st0{fill:#1F2639;}
	.st1{opacity:0.5;}
	.st2{clip-path:url(#SVGID_00000105413353941241538970000018279754580297842311_);fill:#1F2639;}
	.st3{clip-path:url(#SVGID_00000105413353941241538970000018279754580297842311_);}
	.st4{fill:none;stroke:#CEBE78;stroke-width:2.0247;stroke-linecap:round;stroke-linejoin:round;stroke-miterlimit:10;}
	.st5{fill:#CEBE78;stroke:#CEBE78;stroke-width:4.0494;stroke-linecap:round;stroke-linejoin:round;stroke-miterlimit:10;}
	.st6{fill:#4D6571;stroke:#CEBE78;stroke-width:4.0494;stroke-linecap:round;stroke-linejoin:round;stroke-miterlimit:10;}
	.st7{fill:none;stroke:#CEBE78;stroke-width:4.0494;stroke-linecap:round;stroke-linejoin:round;stroke-miterlimit:10;}
	.st8{fill:#4F4D71;stroke:#CEBE78;stroke-width:4.0494;stroke-linecap:round;stroke-linejoin:round;stroke-miterlimit:10;}
	.st9{fill:#1F2639;stroke:#CEBE78;stroke-width:4.0494;stroke-linecap:round;stroke-linejoin:round;stroke-miterlimit:10;}
	.st10{fill:#4D6571;stroke:#CEBE78;stroke-width:4.0495;stroke-linecap:round;stroke-linejoin:round;stroke-miterlimit:10.0002;}
	.st11{fill:#4F4D71;stroke:#CEBE78;stroke-width:4.0493;stroke-linecap:round;stroke-linejoin:round;stroke-miterlimit:9.9996;}
	.st12{fill:#4D6571;stroke:#CEBE78;stroke-width:4.0493;stroke-linecap:round;stroke-linejoin:round;stroke-miterlimit:9.9997;}
	.st13{fill:#4F4D71;stroke:#CEBE78;stroke-width:4.0493;stroke-linecap:round;stroke-linejoin:round;stroke-miterlimit:9.9998;}
	.st14{fill:none;}
</style>
<rect x="-2" y="-63.7" class="st0" width="1121" height="351.7"/>
<g id="BACKGROUND" class="st1">
</g>
<g class="st1">
	<defs>
		<rect id="SVGID_1_" x="-2.1" y="-63" class="st1" width="1120.8" height="350.9"/>
	</defs>
	<clipPath id="SVGID_00000080177204991680499760000008597916327010410925_">
		<use xlink:href="#SVGID_1_"  style="overflow:visible;"/>
	</clipPath>
	
		<rect x="-10.5" y="-72.7" style="clip-path:url(#SVGID_00000080177204991680499760000008597916327010410925_);fill:#1F2639;" width="1129.5" height="369.5"/>
	<g id="OBJECTS" style="clip-path:url(#SVGID_00000080177204991680499760000008597916327010410925_);">
		<path class="st4" d="M2959.7-723.4"/>
		<path class="st4" d="M2694.3-882.8"/>
		<path class="st5" d="M3116.4-728.3c0,5.5-2.9,10.6-7.7,13.3l0,0c-6.8,3.9-15.6,2.1-20.2-4.3c17.6,24.9,27.9,55.2,27.9,88V-728.3z"
			/>
		<path class="st5" d="M2811.2-728.3c0,5.5,2.9,10.6,7.7,13.3l0,0c6.8,3.9,15.6,2.1,20.2-4.3c-17.6,24.9-27.9,55.2-27.9,88V-728.3z"
			/>
		<g>
			<path class="st6" d="M1315.9-796.2L1315.9-796.2c84.3,0,152.6,68.3,152.6,152.7v548.8h-305.2v-548.8
				C1163.3-727.8,1231.6-796.2,1315.9-796.2z"/>
			<g>
				<path class="st4" d="M1272.4-789.9c26.9,27.5,43.4,65.1,43.4,106.7"/>
				<path class="st4" d="M1218-760.6c57.3,22,97.9,77.5,97.9,142.6"/>
				<path class="st4" d="M1176.1-704.9c78.3,6.5,139.7,72.1,139.7,152.1"/>
				<path class="st4" d="M1163.3-640.3c81.6,0,148.2,64,152.4,144.6"/>
				<path class="st4" d="M1163.3-575.1c57.9,0,108.3,32.3,134.2,79.9"/>
				<path class="st4" d="M1163.3-509.8c33,0,63.6,10.5,88.5,28.3"/>
				<path class="st4" d="M1163.3-444.7c12.1,0,23.9,1.4,35.2,4.1"/>
			</g>
			<g>
				<path class="st4" d="M1359.3-789.9c-26.9,27.5-43.4,65.1-43.4,106.7"/>
				<path class="st4" d="M1413.8-760.6c-57.3,22-97.9,77.5-97.9,142.6"/>
				<path class="st4" d="M1455.6-704.9c-78.3,6.5-139.7,72.1-139.7,152.1"/>
				<path class="st4" d="M1468.4-640.3c-81.6,0-148.2,64-152.4,144.6"/>
				<path class="st4" d="M1468.4-575.1c-57.9,0-108.3,32.3-134.2,79.9"/>
				<path class="st4" d="M1468.4-509.8c-33,0-63.6,10.5-88.5,28.3"/>
				<path class="st4" d="M1468.4-444.7c-12.1,0-23.9,1.4-35.2,4.1"/>
			</g>
			<line class="st4" x1="1315.9" y1="-495.6" x2="1315.9" y2="-796.2"/>
			<rect x="552.9" y="-692.4" class="st7" width="305.2" height="1119.5"/>
			<rect x="858.1" y="-692.4" class="st7" width="305.2" height="1119.5"/>
			<rect x="247.8" y="-692.4" class="st7" width="305.2" height="1119.5"/>
			<rect x="-57.4" y="-692.4" class="st7" width="305.2" height="1119.5"/>
			<path class="st8" d="M1010.7-274.4L1010.7-274.4c84.3,0,152.6,68.3,152.6,152.7v548.8H858.1v-548.8
				C858.1-206.1,926.4-274.4,1010.7-274.4z"/>
			<g>
				<path class="st4" d="M967.3-268.1c26.9,27.5,43.4,65.1,43.4,106.7"/>
				<path class="st4" d="M912.8-238.8c57.3,22,97.9,77.5,97.9,142.6"/>
				<path class="st4" d="M871-183.2c78.3,6.5,139.7,72.1,139.7,152.1"/>
				<path class="st4" d="M858.1-118.5c81.6,0,148.2,64,152.4,144.6"/>
				<path class="st4" d="M858.1-53.3c57.9,0,108.3,32.3,134.2,79.9"/>
				<path class="st4" d="M858.1,11.9c33,0,63.6,10.5,88.5,28.3"/>
				<path class="st4" d="M858.1,77.1c12.1,0,23.9,1.4,35.2,4.1"/>
			</g>
			<g>
				<path class="st4" d="M1054.1-268.1c-26.9,27.5-43.4,65.1-43.4,106.7"/>
				<path class="st4" d="M1108.6-238.8c-57.3,22-97.9,77.5-97.9,142.6"/>
				<path class="st4" d="M1150.4-183.2c-78.3,6.5-139.7,72.1-139.7,152.1"/>
				<path class="st4" d="M1163.3-118.5c-81.6,0-148.2,64-152.4,144.6"/>
				<path class="st4" d="M1163.3-53.3c-57.9,0-108.3,32.3-134.2,79.9"/>
				<path class="st4" d="M1163.3,11.9c-33,0-63.6,10.5-88.5,28.3"/>
				<path class="st4" d="M1163.3,77.1c-12.1,0-23.9,1.4-35.2,4.1"/>
			</g>
			<line class="st4" x1="1010.7" y1="26.1" x2="1010.7" y2="-274.4"/>
			<path class="st9" d="M705.5-572.4L705.5-572.4c84.3,0,152.6,68.3,152.6,152.7v846.8H552.9v-846.8
				C552.9-504,621.2-572.4,705.5-572.4z"/>
			<path class="st9" d="M1010.7,26.1L1010.7,26.1c84.3,0,152.6,68.3,152.6,152.7v248.3H858.1V178.8
				C858.1,94.5,926.4,26.1,1010.7,26.1z"/>
			<path class="st6" d="M247.8-457.8L247.8-457.8c84.3,0,152.6,68.3,152.6,152.7v548.8H95.2v-548.8
				C95.2-389.5,163.5-457.8,247.8-457.8z"/>
			<g>
				<path class="st4" d="M204.3-451.6c26.9,27.5,43.4,65.1,43.4,106.7"/>
				<path class="st4" d="M149.8-422.3c57.3,22,97.9,77.5,97.9,142.6"/>
				<path class="st4" d="M108-366.6c78.3,6.5,139.7,72.1,139.7,152.1"/>
				<path class="st4" d="M95.2-301.9c81.6,0,148.2,64,152.4,144.6"/>
				<path class="st4" d="M95.2-236.7c57.9,0,108.3,32.3,134.2,79.9"/>
				<path class="st4" d="M95.2-171.5c33,0,63.6,10.5,88.5,28.3"/>
				<path class="st4" d="M95.2-106.3c12.1,0,23.9,1.4,35.2,4.1"/>
			</g>
			<g>
				<path class="st4" d="M291.2-451.6c-26.9,27.5-43.4,65.1-43.4,106.7"/>
				<path class="st4" d="M345.7-422.3c-57.3,22-97.9,77.5-97.9,142.6"/>
				<path class="st4" d="M387.5-366.6c-78.3,6.5-139.7,72.1-139.7,152.1"/>
				<path class="st4" d="M400.3-301.9c-81.6,0-148.2,64-152.4,144.6"/>
				<path class="st4" d="M400.3-236.7c-57.9,0-108.3,32.3-134.2,79.9"/>
				<path class="st4" d="M400.3-171.5c-33,0-63.6,10.5-88.5,28.3"/>
				<path class="st4" d="M400.3-106.3c-12.1,0-23.9,1.4-35.2,4.1"/>
			</g>
			<line class="st4" x1="247.8" y1="-157.3" x2="247.8" y2="-457.8"/>
			<path class="st9" d="M247.8-157.3L247.8-157.3c84.3,0,152.6,68.3,152.6,152.7v431.7H95.2V-4.7C95.2-89,163.5-157.3,247.8-157.3z"
				/>
			<path class="st9" d="M629.2-274.4L629.2-274.4c42.1,0,76.3,34.2,76.3,76.3v625.1H552.9v-625.1
				C552.9-240.2,587.1-274.4,629.2-274.4z"/>
			<path class="st9" d="M476.6,76.3L476.6,76.3c42.1,0,76.3,34.2,76.3,76.3v274.4H400.3V152.7C400.3,110.5,434.5,76.3,476.6,76.3z"
				/>
			<path class="st9" d="M1087,184.2L1087,184.2c42.1,0,76.3,34.2,76.3,76.3v166.5h-152.6V260.6
				C1010.7,218.4,1044.8,184.2,1087,184.2z"/>
			<path class="st9" d="M171.4,184.2L171.4,184.2c42.1,0,76.3,34.2,76.3,76.3v166.5H95.1V260.6C95.1,218.4,129.2,184.2,171.4,184.2z
				"/>
			<ellipse class="st8" cx="476.7" cy="-46.2" rx="76.3" ry="76.3"/>
			<line class="st4" x1="400.3" y1="-46.2" x2="552.9" y2="-46.2"/>
			<line class="st4" x1="476.6" y1="-122.5" x2="476.6" y2="-692.4"/>
			<line class="st4" x1="461.4" y1="-121" x2="461.4" y2="-692.4"/>
			<line class="st4" x1="446.1" y1="-116.2" x2="446.1" y2="-692.4"/>
			<line class="st4" x1="430.9" y1="-107.1" x2="430.9" y2="-692.4"/>
			<line class="st4" x1="415.6" y1="-92" x2="415.6" y2="-692.4"/>
			<line class="st7" x1="400.3" y1="-46.2" x2="400.3" y2="-692.4"/>
			<line class="st4" x1="537.7" y1="-92" x2="537.7" y2="-692.4"/>
			<line class="st7" x1="552.9" y1="-46.2" x2="552.9" y2="-692.4"/>
			<line class="st4" x1="522.4" y1="-107.1" x2="522.4" y2="-692.4"/>
			<line class="st4" x1="507.1" y1="-116.2" x2="507.1" y2="-692.4"/>
			<line class="st4" x1="491.9" y1="-121" x2="491.9" y2="-692.4"/>
			<line class="st4" x1="1392.2" y1="-203.4" x2="1392.2" y2="427.1"/>
			<line class="st4" x1="1407.4" y1="-204.9" x2="1407.4" y2="427.1"/>
			<line class="st4" x1="1422.7" y1="-209.7" x2="1422.7" y2="427.1"/>
			<line class="st4" x1="1437.9" y1="-218.8" x2="1437.9" y2="427.1"/>
			<line class="st4" x1="1453.2" y1="-233.9" x2="1453.2" y2="427.1"/>
			<line class="st7" x1="1468.4" y1="-279.7" x2="1468.4" y2="427.1"/>
			<line class="st4" x1="1331.1" y1="-233.9" x2="1331.1" y2="427.1"/>
			<line class="st7" x1="1315.9" y1="427.1" x2="1315.9" y2="-279.7"/>
			<line class="st4" x1="1346.4" y1="-218.8" x2="1346.4" y2="427.1"/>
			<line class="st4" x1="1361.6" y1="-209.7" x2="1361.6" y2="427.1"/>
			<line class="st4" x1="1376.9" y1="-204.9" x2="1376.9" y2="427.1"/>
			<ellipse class="st10" cx="1392.2" cy="-279.7" rx="76.3" ry="76.3"/>
			<line class="st4" x1="1315.9" y1="-279.7" x2="1468.4" y2="-279.7"/>
			<ellipse class="st11" cx="18.9" cy="-572.3" rx="76.3" ry="76.3"/>
			<line class="st4" x1="95.2" y1="-572.4" x2="-57.4" y2="-572.4"/>
			<line class="st4" x1="18.9" y1="-496.1" x2="18.9" y2="427.1"/>
			<line class="st4" x1="34.1" y1="-497.6" x2="34.1" y2="427.1"/>
			<line class="st4" x1="49.4" y1="-502.4" x2="49.4" y2="427.1"/>
			<line class="st4" x1="64.6" y1="-511.5" x2="64.6" y2="427.1"/>
			<line class="st4" x1="79.9" y1="-526.6" x2="79.9" y2="427.1"/>
			<line class="st7" x1="95.2" y1="-572.4" x2="95.2" y2="427.1"/>
			<line class="st4" x1="-42.2" y1="-526.6" x2="-42.2" y2="427.1"/>
			<line class="st7" x1="-57.4" y1="-572.4" x2="-57.4" y2="427.1"/>
			<line class="st4" x1="-26.9" y1="-511.5" x2="-26.9" y2="427.1"/>
			<line class="st4" x1="-11.7" y1="-502.4" x2="-11.7" y2="427.1"/>
			<line class="st4" x1="3.6" y1="-497.6" x2="3.6" y2="427.1"/>
			<ellipse class="st12" cx="781.8" cy="193.6" rx="76.3" ry="76.3"/>
			<line class="st4" x1="858.1" y1="193.6" x2="705.5" y2="193.6"/>
			<line class="st4" x1="781.8" y1="270.7" x2="781.8" y2="427.1"/>
			<line class="st4" x1="797.1" y1="269.1" x2="797.1" y2="427.1"/>
			<line class="st4" x1="812.3" y1="264.3" x2="812.3" y2="427.1"/>
			<line class="st4" x1="827.6" y1="255.3" x2="827.6" y2="427.1"/>
			<line class="st4" x1="842.8" y1="240.2" x2="842.8" y2="427.1"/>
			<line class="st7" x1="858.1" y1="194.4" x2="858.1" y2="427.1"/>
			<line class="st4" x1="720.8" y1="240.1" x2="720.8" y2="427.1"/>
			<line class="st7" x1="705.5" y1="194.4" x2="705.5" y2="427.1"/>
			<line class="st4" x1="736" y1="255.3" x2="736" y2="427.1"/>
			<line class="st4" x1="751.3" y1="264.3" x2="751.3" y2="427.1"/>
			<line class="st4" x1="766.5" y1="269.1" x2="766.5" y2="427.1"/>
			<ellipse class="st13" cx="934.4" cy="-394.1" rx="76.3" ry="76.3"/>
			<line class="st4" x1="858.1" y1="-394.1" x2="1010.7" y2="-394.1"/>
			<line class="st4" x1="934.4" y1="-470.4" x2="934.4" y2="-692.4"/>
			<line class="st4" x1="919.1" y1="-468.9" x2="919.1" y2="-692.4"/>
			<line class="st4" x1="903.9" y1="-464.1" x2="903.9" y2="-692.4"/>
			<line class="st4" x1="888.6" y1="-455" x2="888.6" y2="-692.4"/>
			<line class="st4" x1="873.4" y1="-439.9" x2="873.4" y2="-692.4"/>
			<line class="st7" x1="858.1" y1="-394.1" x2="858.1" y2="-692.4"/>
			<line class="st4" x1="995.4" y1="-439.9" x2="995.4" y2="-692.4"/>
			<line class="st7" x1="1010.7" y1="-394.1" x2="1010.7" y2="-692.4"/>
			<line class="st4" x1="980.2" y1="-455" x2="980.2" y2="-692.4"/>
			<line class="st4" x1="964.9" y1="-464.1" x2="964.9" y2="-692.4"/>
			<line class="st4" x1="949.7" y1="-468.9" x2="949.7" y2="-692.4"/>
			<path class="st7" d="M1253.9-403.7"/>
			<path class="st5" d="M858.1-516.7c0,5.5-2.9,10.6-7.7,13.3l0,0c-6.8,3.9-15.6,2.1-20.2-4.3c17.6,24.9,27.9,55.2,27.9,88V-516.7z"
				/>
			<path class="st5" d="M552.9-516.7c0,5.5,2.9,10.6,7.7,13.3l0,0c6.8,3.9,15.6,2.1,20.2-4.3c-17.6,24.9-27.9,55.2-27.9,88V-516.7z"
				/>
			<path class="st5" d="M400.3-402.2c0,5.5-2.9,10.6-7.7,13.3l0,0c-6.8,3.9-15.6,2.1-20.2-4.3c17.6,24.9,27.9,55.2,27.9,88V-402.2z"
				/>
			<path class="st5" d="M95.2-402.2c0,5.5,2.9,10.6,7.7,13.3l0,0c6.8,3.9,15.6,2.1,20.2-4.3c-17.6,24.9-27.9,55.2-27.9,88V-402.2z"
				/>
			<path class="st5" d="M400.3-102.2c0,5.5-2.9,10.6-7.7,13.3l0,0c-6.8,3.9-15.6,2.1-20.2-4.3c17.6,24.9,27.9,55.2,27.9,88V-102.2z"
				/>
			<path class="st5" d="M95.2-102.2c0,5.5,2.9,10.6,7.7,13.3l0,0c6.8,3.9,15.6,2.1,20.2-4.3C105.5-68.3,95.2-38,95.2-5.2V-102.2z"/>
			<path class="st5" d="M1163.1-218c0,5.5-2.9,10.6-7.7,13.3l0,0c-6.8,3.9-15.6,2.1-20.2-4.3c17.6,24.9,27.9,55.2,27.9,88V-218z"/>
			<path class="st5" d="M857.9-218c0,5.5,2.9,10.6,7.7,13.3l0,0c6.8,3.9,15.6,2.1,20.2-4.3c-17.6,24.9-27.9,55.2-27.9,88V-218z"/>
			<path class="st5" d="M1163.3,81.8c0,5.5-2.9,10.6-7.7,13.3l0,0c-6.8,3.9-15.6,2.1-20.2-4.3c17.6,24.9,27.9,55.2,27.9,88V81.8z"/>
			<path class="st5" d="M858.1,81.8c0,5.5,2.9,10.6,7.7,13.3l0,0c6.8,3.9,15.6,2.1,20.2-4.3c-17.6,24.9-27.9,55.2-27.9,88V81.8z"/>
			<path class="st5" d="M1468.4-440c0,5.5-2.9,10.6-7.7,13.3l0,0c-6.8,3.9-15.6,2.1-20.2-4.3c17.6,24.9,27.9,55.2,27.9,88
				C1468.4-343,1468.4-440,1468.4-440z"/>
			<path class="st5" d="M1163.3-440c0,5.5,2.9,10.6,7.7,13.3l0,0c6.8,3.9,15.6,2.1,20.2-4.3c-17.6,24.9-27.9,55.2-27.9,88V-440z"/>
			<path class="st7" d="M400.3,204.9L400.3,204.9c-84.1,0-152.4-68.2-152.4-152.4v-209.7"/>
			<path class="st7" d="M836.9-497.4c-74.2,10.2-131.4,73.9-131.4,151v209.7"/>
			<path class="st7" d="M1163.1,64.9L1163.1,64.9c84.1,0,152.4,68.2,152.4,152.4V427"/>
			<path class="st5" d="M1468.4-55c0,5.5-2.9,10.6-7.7,13.3l0,0c-6.8,3.9-15.6,2.1-20.2-4.3c17.6,24.9,27.9,55.2,27.9,88
				C1468.4,42,1468.4-55,1468.4-55z"/>
			<path class="st5" d="M1163.3-55c0,5.5,2.9,10.6,7.7,13.3l0,0c6.8,3.9,15.6,2.1,20.2-4.3c-17.6,24.9-27.9,55.2-27.9,88V-55z"/>
			<rect x="-53.6" y="-639.2" class="st14" width="1518.2" height="1012.6"/>
		</g>
	</g>
</g>
</svg>
