<svg width="168" height="30" viewBox="0 0 168 30" fill="none" xmlns="http://www.w3.org/2000/svg">
<g id="logo" clip-path="url(#clip0_2_8)">
<path id="Vector" d="M129.736 28.4381H120.058C124.659 27.4038 123.689 24.5825 123.717 22.1975C123.767 18.2364 123.865 14.2683 123.654 10.3143C123.584 8.94934 122.643 7.63367 122.004 6.06472C125.895 6.12804 130.79 4.69277 135.229 7.07082C136.76 7.89399 137.94 10.4057 138.207 12.3053C138.677 15.6473 135.973 16.977 132.834 17.962C136.388 21.114 137.16 26.447 142.21 27.9456C138.389 29.5779 136.949 29.0502 134.8 25.7716C132.911 22.887 131.872 19.0455 127.629 18.3771C125.853 23.1613 126.723 26.8902 129.743 28.431L129.736 28.4381ZM127.061 17.6454C130.172 17.2795 133.234 17.2866 134.414 14.2331C134.983 12.7556 134.842 10.3987 134 9.12523C132.497 6.85975 129.877 6.56426 127.068 7.29596V17.6454H127.061Z" fill="white"/>
<path id="Vector_2" d="M166.799 12.5305C163.94 7.84475 160.323 6.07881 155.281 7.2608V16.0483H159.698C160.134 15.1759 160.632 14.1839 161.124 13.1918C161.307 13.213 161.489 13.227 161.665 13.2481V21.3321C160.281 17.6736 158.202 16.7167 155.105 17.8424C155.105 20.2416 154.894 22.69 155.217 25.068C155.337 25.9334 156.629 27.1787 157.521 27.3194C161.173 27.8682 164.804 27.8612 166.855 23.8579C166.996 23.5905 167.368 23.4287 167.649 23.2528C167.726 23.2036 167.874 23.2669 167.993 23.2739C167.48 28.5858 167.382 28.6773 162.444 28.6773C157.985 28.6773 153.532 28.6773 149.83 28.6773C150.54 26.8691 151.579 25.3635 151.657 23.8086C151.895 19.3973 151.888 14.9508 151.657 10.5394C151.579 9.08303 150.533 7.68293 149.795 5.94513C153.082 5.94513 157.128 5.94513 161.173 5.94513C166.019 5.94513 166.349 6.27581 166.792 12.5446L166.799 12.5305Z" fill="white"/>
<path id="Vector_3" d="M23.4301 28.3818H0C4.60736 26.44 4.62843 26.44 4.65652 21.522C4.68462 16.8574 4.71271 12.1928 4.65652 7.53518C4.6214 4.51689 5.87157 0.717636 0.772575 0H12.6702C12.7264 0.281426 12.7756 0.555816 12.8318 0.837242C11.6237 1.05535 10.4227 1.28049 8.69498 1.59709V27.1224C15.2829 27.6079 22.0324 29.022 24.3291 19.6224C24.6171 19.9461 24.905 20.2627 25.186 20.5863C24.603 23.1684 24.013 25.7434 23.4231 28.3748L23.4301 28.3818Z" fill="white"/>
<path id="Vector_4" d="M32.694 17.5962C32.7151 10.842 37.9054 5.63557 44.5846 5.65668C51.0391 5.67779 56.0398 10.7927 56.1662 17.5047C56.2856 23.7946 50.6177 29.4935 44.4231 29.3246C37.6876 29.1417 32.6799 24.1323 32.701 17.5891L32.694 17.5962ZM35.707 16.9278C36.3532 18.9963 36.7184 21.2125 37.7017 23.1051C39.2819 26.1445 41.9017 28.2763 45.4906 27.9597C49.2201 27.629 51.8468 25.2299 52.2331 21.5432C52.5562 18.4686 52.3595 15.1196 51.4324 12.1998C50.5264 9.32929 48.1525 7.17638 44.7321 6.93717C39.7314 6.57835 36.1003 10.7364 35.707 16.9419V16.9278Z" fill="white"/>
<path id="Vector_5" d="M85.3977 6.14917C84.7304 7.68294 83.6839 9.13932 83.5154 10.6942C83.1291 14.1628 83.1993 17.6736 83.0448 21.1703C82.8271 26.243 80.1161 28.9517 74.9328 29.3176C69.8057 29.6834 66.5609 27.3828 65.9428 22.3171C65.4793 18.5249 65.704 14.6412 65.6057 10.7997C65.5565 8.86493 66.294 6.4306 62.9789 6.15621H71.7933C68.8154 6.96531 68.6609 9.22375 68.7451 11.6792C68.8786 15.4081 68.8716 19.137 69.0331 22.8659C69.1736 26.1304 71.3508 27.6642 74.2445 27.9315C77.1943 28.2059 80.3829 27.3405 80.8184 24.1041C81.4856 19.1933 81.3732 14.1487 81.2187 9.1745C81.1906 8.15433 79.5191 7.19045 78.5569 6.15621H85.3906L85.3977 6.14917Z" fill="white"/>
<path id="Vector_6" d="M103.588 23.6538C105.309 18.8978 107.128 14.1698 108.652 9.35038C108.926 8.48499 107.978 7.23968 107.55 6.05066H114.559C108.589 9.87102 108.315 16.6815 105.492 22.0779C104.326 24.3152 103.56 26.7566 102.247 30C100.638 25.6379 99.29 22.0708 98.0187 18.4826C97.1689 16.0835 96.5789 13.5858 95.6167 11.2359C94.8793 9.44184 93.7415 7.80957 92.7722 6.08584H100.99C101.018 6.24062 101.053 6.39541 101.081 6.55019C100.112 6.93012 99.1425 7.31004 97.6957 7.87289C99.4023 13.2622 101.053 18.5038 102.71 23.7523C103.005 23.7172 103.3 23.682 103.588 23.6538Z" fill="white"/>
</g>
<defs>
<clipPath id="clip0_2_8">
<rect width="168" height="30" fill="white"/>
</clipPath>
</defs>
</svg>
