<svg width="138" height="92" viewBox="0 0 138 92" fill="none" xmlns="http://www.w3.org/2000/svg">
<g id="Capa_1" clip-path="url(#clip0_13_215)">
<path id="Vector" d="M0 92C23.0402 61.2803 45.9632 30.7128 69.0034 0C92.0299 30.7059 114.96 61.2734 138 92H0ZM82.2747 88.589C86.2319 83.3168 90.0582 78.2246 93.9258 73.07C90.0513 67.9155 86.2112 62.8024 82.2747 57.5649C78.3381 62.8232 74.5188 67.9155 70.6649 73.0631C74.5119 78.2107 78.3312 83.303 82.2747 88.5821V88.589ZM67.342 73.07C63.4743 67.9085 59.6481 62.7955 55.7322 57.5649C51.7681 62.8439 47.9418 67.9362 44.0811 73.07C47.9625 78.2315 51.8026 83.3514 55.7322 88.5821C59.6757 83.3168 63.4881 78.2176 67.342 73.07ZM82.2747 22.1403C78.4484 27.2395 74.7463 32.1519 71.1062 37.0989C70.9131 37.3618 71.0648 38.1021 71.3061 38.4273C74.7463 43.0906 78.2347 47.7262 81.7025 52.3757C81.8817 52.611 81.9851 52.9016 82.1781 53.2613C86.2457 47.8508 90.0788 42.7724 93.9396 37.6386C90.065 32.4909 86.2388 27.4125 82.2678 22.1403H82.2747ZM68.9966 4.43499C65.2048 9.49959 61.5647 14.3981 57.8694 19.2621C57.3248 19.9747 57.7108 20.3691 58.0831 20.8673C61.5095 25.4337 64.9359 30.0001 68.3692 34.5597C68.5484 34.7949 68.7553 35.0025 68.9138 35.1893C69.0586 35.1478 69.1207 35.1547 69.1344 35.127C72.8159 30.2561 76.4974 25.3853 80.1375 20.4867C80.3305 20.2307 80.2478 19.5734 80.0479 19.2552C79.4343 18.2865 78.6966 17.394 78.0072 16.4738C75.0427 12.5162 72.0713 8.55862 68.9828 4.4419L68.9966 4.43499ZM55.7253 53.1299C59.5309 48.0445 63.2193 43.1391 66.8525 38.1782C67.0593 37.8946 66.9076 37.0989 66.6525 36.746C63.2399 32.1173 59.7722 27.5301 56.332 22.9222C56.1528 22.6869 56.0494 22.3894 55.8356 21.995C51.8853 27.2464 48.1831 32.1519 44.5224 37.0851C44.3431 37.3272 44.3707 37.9499 44.5568 38.199C48.2176 43.1321 51.9129 48.0445 55.7322 53.1299H55.7253ZM42.4196 39.8249C38.6141 44.9172 34.9188 49.8296 31.2856 54.7904C31.0788 55.0741 31.2442 55.8767 31.5062 56.2295C34.8912 60.8306 38.3245 65.3901 41.7509 69.9565C41.9508 70.2194 42.199 70.4478 42.4817 70.7522C46.2459 65.743 49.9549 60.8375 53.6157 55.8974C53.795 55.6483 53.7812 55.0256 53.5882 54.7696C49.9274 49.8296 46.2321 44.9172 42.4128 39.8249H42.4196ZM95.6148 39.9287C95.3046 40.2954 95.0702 40.5514 94.8634 40.8212C91.4577 45.3531 88.0726 49.8988 84.6256 54.396C84.0465 55.1502 84.1016 55.5999 84.6532 56.3264C88.0382 60.7614 91.3749 65.2379 94.7255 69.6936C94.9806 70.0326 95.2701 70.344 95.5597 70.6899C95.7389 70.5377 95.8492 70.4685 95.9251 70.3647C99.5169 65.5838 103.095 60.796 106.708 56.0289C107.163 55.4269 106.997 55.0464 106.604 54.5275C104.46 51.7115 102.344 48.8679 100.22 46.0311C98.7103 44.0247 97.2005 42.0182 95.6217 39.9218L95.6148 39.9287ZM108.817 88.506C109.052 88.25 109.217 88.1116 109.341 87.9455C112.878 83.2407 116.401 78.5221 119.958 73.8311C120.441 73.2015 120.317 72.8071 119.882 72.2328C116.38 67.611 112.912 62.9685 109.444 58.319C109.265 58.0838 109.189 57.7655 109.01 57.3642C105.053 62.6502 101.406 67.5557 97.7175 72.4127C97.166 73.1392 97.6003 73.5197 97.9588 74.0041C101.006 78.0793 104.06 82.1545 107.107 86.2297C107.659 86.9631 108.21 87.6895 108.824 88.506H108.817ZM29.0105 57.4749C28.8796 57.7793 28.8382 57.9662 28.7348 58.1045C25.1843 62.8509 21.6476 67.611 18.0489 72.3228C17.4766 73.0769 17.8214 73.4851 18.2281 74.0317C21.4408 78.3145 24.6534 82.5973 27.8592 86.88C28.2522 87.399 28.652 87.911 29.2794 88.7274C29.4104 88.3814 29.4449 88.1877 29.5483 88.0493C33.0988 83.2961 36.6355 78.5428 40.2204 73.8173C40.703 73.1738 40.5582 72.7794 40.1308 72.219C36.7664 67.7702 33.4435 63.3006 30.0998 58.8379C29.8172 58.4574 29.5138 58.0976 29.0105 57.4749ZM68.9069 70.7176C69.1344 70.5585 69.2241 70.5239 69.2723 70.4616C72.8917 65.6461 76.4974 60.8236 80.1375 56.022C80.6063 55.4062 80.3788 55.0256 79.9927 54.5206C78.4071 52.4449 76.8628 50.3347 75.2978 48.2452C73.2365 45.4915 71.1682 42.7378 69.031 39.8803C68.6174 40.3992 68.2865 40.8005 67.9762 41.2087C65.1083 45.0348 62.2472 48.8679 59.3792 52.7009C58.0602 54.4629 58.067 56.2341 59.3999 58.0146C62.5574 62.2282 65.7149 66.4417 68.9138 70.7176H68.9069ZM26.4459 89.4054C22.8472 84.6037 19.407 80.0165 15.8634 75.284C12.306 80.0304 8.85208 84.6383 5.28091 89.4054H26.4459ZM42.4196 75.2771C38.8554 80.0442 35.4221 84.6383 31.8785 89.3777H52.9953C49.4379 84.6383 45.9977 80.0581 42.4128 75.2771H42.4196ZM95.5804 75.2771C91.9885 80.065 88.5414 84.6591 85.0116 89.3639H106.121C102.564 84.6107 99.1377 80.0304 95.5872 75.2771H95.5804ZM132.726 89.3985C129.12 84.5899 125.666 79.9958 122.137 75.2979C118.545 80.0857 115.118 84.666 111.561 89.3985H132.719H132.726ZM68.9966 75.284C65.4461 80.0304 62.0059 84.6314 58.4761 89.3501H79.517C75.9596 84.5968 72.5332 80.0165 68.9897 75.284H68.9966Z" fill="white"/>
</g>
<defs>
<clipPath id="clip0_13_215">
<rect width="138" height="92" fill="white"/>
</clipPath>
</defs>
</svg>
